HIERARCHY
ROOT Hips
{
	OFFSET 0.000000 121.760803 0.000000
	CHANNELS 6 Xposition Yposition Zposition Xrotation Yrotation Zrotation 
	JOINT Spine
	{
		OFFSET 0.072000 7.257294 -0.789700
		CHANNELS 3 Xrotation Yrotation Zrotation
		JOINT Spine1
		{
			OFFSET 0.000000 12.508769 -0.658067
			CHANNELS 3 Xrotation Yrotation Zrotation
			JOINT Spine1_split
			{
				OFFSET 0.000000 12.508769 -0.658067
				CHANNELS 3 Xrotation Yrotation Zrotation
				JOINT Spine2
				{
					OFFSET 0.000000 12.508769 -0.658067
					CHANNELS 3 Xrotation Yrotation Zrotation
					JOINT Neck
					{
						OFFSET 0.000000 14.033295 7.520400
						CHANNELS 3 Xrotation Yrotation Zrotation
						JOINT Head
						{
							OFFSET 0.000000 8.198502 5.703100
							CHANNELS 3 Xrotation Yrotation Zrotation
							JOINT HeadTop_End
							{
								OFFSET 0.000000 17.760803 13.332701
								CHANNELS 3 Xrotation Yrotation Zrotation
								End Site
								{
									OFFSET 0.000000 0.000000 0.000000
								}
							}
						}
					}
					JOINT LeftShoulder
					{
						OFFSET 6.292450 5.785301 -0.669000
						CHANNELS 3 Xrotation Yrotation Zrotation
						JOINT LeftShoulder_split
						{
							OFFSET 6.292450 5.785301 -0.669000
							CHANNELS 3 Xrotation Yrotation Zrotation
							JOINT LeftArm
							{
								OFFSET 13.907140 -6.093903 1.965100
								CHANNELS 3 Xrotation Yrotation Zrotation
								JOINT LeftForeArm
								{
									OFFSET 34.140198 0.000000 0.000000
									CHANNELS 3 Xrotation Yrotation Zrotation
									JOINT LeftHand
									{
										OFFSET 40.960209 0.000000 0.000000
										CHANNELS 3 Xrotation Yrotation Zrotation
										JOINT LeftHandThumb1
										{
											OFFSET 10.006996 -7.170425 9.573125
											CHANNELS 3 Xrotation Yrotation Zrotation
											JOINT LeftHandThumb2
											{
												OFFSET 1.835007 -1.059448 1.059443
												CHANNELS 3 Xrotation Yrotation Zrotation
												JOINT LeftHandThumb3
												{
													OFFSET 2.112267 -1.219513 1.219518
													CHANNELS 3 Xrotation Yrotation Zrotation
													JOINT LeftHandThumb4
													{
														OFFSET 4.843811 -2.796570 2.796576
														CHANNELS 3 Xrotation Yrotation Zrotation
														End Site
														{
															OFFSET 0.000000 0.000000 0.000000
														}
													}
												}
											}
										}
										JOINT LeftHandIndex1
										{
											OFFSET 18.389847 -0.922348 4.596882
											CHANNELS 3 Xrotation Yrotation Zrotation
											JOINT LeftHandIndex2
											{
												OFFSET 4.711273 0.000000 0.000000
												CHANNELS 3 Xrotation Yrotation Zrotation
												JOINT LeftHandIndex3
												{
													OFFSET 2.886131 0.000000 0.000000
													CHANNELS 3 Xrotation Yrotation Zrotation
													JOINT LeftHandIndex4
													{
														OFFSET 6.145912 0.000000 0.000000
														CHANNELS 3 Xrotation Yrotation Zrotation
														End Site
														{
															OFFSET 0.000000 0.000000 0.000000
														}
													}
												}
											}
										}
										JOINT LeftHandMiddle1
										{
											OFFSET 18.013008 0.000000 0.000000
											CHANNELS 3 Xrotation Yrotation Zrotation
											JOINT LeftHandMiddle2
											{
												OFFSET 4.946693 0.000000 0.000000
												CHANNELS 3 Xrotation Yrotation Zrotation
												JOINT LeftHandMiddle3
												{
													OFFSET 3.342232 0.000000 0.000000
													CHANNELS 3 Xrotation Yrotation Zrotation
													JOINT LeftHandMiddle4
													{
														OFFSET 4.461754 0.000000 0.000000
														CHANNELS 3 Xrotation Yrotation Zrotation
														End Site
														{
															OFFSET 0.000000 0.000000 0.000000
														}
													}
												}
											}
										}
										JOINT LeftHandRing1
										{
											OFFSET 15.849892 -0.102921 -4.126150
											CHANNELS 3 Xrotation Yrotation Zrotation
											JOINT LeftHandRing2
											{
												OFFSET 3.527054 0.000000 0.000000
												CHANNELS 3 Xrotation Yrotation Zrotation
												JOINT LeftHandRing3
												{
													OFFSET 2.961098 0.000000 0.000000
													CHANNELS 3 Xrotation Yrotation Zrotation
													JOINT LeftHandRing4
													{
														OFFSET 4.927200 0.000000 0.000000
														CHANNELS 3 Xrotation Yrotation Zrotation
														End Site
														{
															OFFSET 0.000000 0.000000 0.000000
														}
													}
												}
											}
										}
										JOINT LeftHandPinky1
										{
											OFFSET 12.791824 -0.832031 -6.799156
											CHANNELS 3 Xrotation Yrotation Zrotation
											JOINT LeftHandPinky2
											{
												OFFSET 3.327133 0.000000 0.000000
												CHANNELS 3 Xrotation Yrotation Zrotation
												JOINT LeftHandPinky3
												{
													OFFSET 3.014900 0.000000 0.000000
													CHANNELS 3 Xrotation Yrotation Zrotation
													JOINT LeftHandPinky4
													{
														OFFSET 5.847786 0.000000 0.000000
														CHANNELS 3 Xrotation Yrotation Zrotation
														End Site
														{
															OFFSET 0.000000 0.000000 0.000000
														}
													}
												}
											}
										}
									}
								}
							}
						}
					}
					JOINT RightShoulder
					{
						OFFSET -6.292450 5.785301 -0.669000
						CHANNELS 3 Xrotation Yrotation Zrotation
						JOINT RightShoulder_split
						{
							OFFSET -6.292450 5.785301 -0.669000
							CHANNELS 3 Xrotation Yrotation Zrotation
							JOINT RightArm
							{
								OFFSET -13.907140 -6.093903 1.965100
								CHANNELS 3 Xrotation Yrotation Zrotation
								JOINT RightForeArm
								{
									OFFSET -34.140198 0.000000 0.000000
									CHANNELS 3 Xrotation Yrotation Zrotation
									JOINT RightHand
									{
										OFFSET -40.960209 0.000000 0.000000
										CHANNELS 3 Xrotation Yrotation Zrotation
										JOINT RightHandThumb1
										{
											OFFSET -10.007050 -7.170456 9.573117
											CHANNELS 3 Xrotation Yrotation Zrotation
											JOINT RightHandThumb2
											{
												OFFSET -1.835007 -1.059448 1.059443
												CHANNELS 3 Xrotation Yrotation Zrotation
												JOINT RightHandThumb3
												{
													OFFSET -2.112267 -1.219513 1.219518
													CHANNELS 3 Xrotation Yrotation Zrotation
													JOINT RightHandThumb4
													{
														OFFSET -4.843834 -2.796585 2.796590
														CHANNELS 3 Xrotation Yrotation Zrotation
														End Site
														{
															OFFSET 0.000000 0.000000 0.000000
														}
													}
												}
											}
										}
										JOINT RightHandIndex1
										{
											OFFSET -18.389870 -0.922424 4.596786
											CHANNELS 3 Xrotation Yrotation Zrotation
											JOINT RightHandIndex2
											{
												OFFSET -4.711273 0.000000 0.000000
												CHANNELS 3 Xrotation Yrotation Zrotation
												JOINT RightHandIndex3
												{
													OFFSET -2.886131 0.000000 0.000000
													CHANNELS 3 Xrotation Yrotation Zrotation
													JOINT RightHandIndex4
													{
														OFFSET -6.145920 0.000000 0.000000
														CHANNELS 3 Xrotation Yrotation Zrotation
														End Site
														{
															OFFSET 0.000000 0.000000 0.000000
														}
													}
												}
											}
										}
										JOINT RightHandMiddle1
										{
											OFFSET -18.013008 0.000000 0.000000
											CHANNELS 3 Xrotation Yrotation Zrotation
											JOINT RightHandMiddle2
											{
												OFFSET -4.946693 0.000000 0.000000
												CHANNELS 3 Xrotation Yrotation Zrotation
												JOINT RightHandMiddle3
												{
													OFFSET -3.342232 0.000000 0.000000
													CHANNELS 3 Xrotation Yrotation Zrotation
													JOINT RightHandMiddle4
													{
														OFFSET -4.461754 0.000000 0.000000
														CHANNELS 3 Xrotation Yrotation Zrotation
														End Site
														{
															OFFSET 0.000000 0.000000 0.000000
														}
													}
												}
											}
										}
										JOINT RightHandRing1
										{
											OFFSET -15.849876 -0.102936 -4.126237
											CHANNELS 3 Xrotation Yrotation Zrotation
											JOINT RightHandRing2
											{
												OFFSET -3.527054 0.000000 0.000000
												CHANNELS 3 Xrotation Yrotation Zrotation
												JOINT RightHandRing3
												{
													OFFSET -2.961098 0.000000 0.000000
													CHANNELS 3 Xrotation Yrotation Zrotation
													JOINT RightHandRing4
													{
														OFFSET -4.927200 0.000000 0.000000
														CHANNELS 3 Xrotation Yrotation Zrotation
														End Site
														{
															OFFSET 0.000000 0.000000 0.000000
														}
													}
												}
											}
										}
										JOINT RightHandPinky1
										{
											OFFSET -12.791786 -0.832077 -6.799222
											CHANNELS 3 Xrotation Yrotation Zrotation
											JOINT RightHandPinky2
											{
												OFFSET -3.327133 0.000000 0.000000
												CHANNELS 3 Xrotation Yrotation Zrotation
												JOINT RightHandPinky3
												{
													OFFSET -3.014900 0.000000 0.000000
													CHANNELS 3 Xrotation Yrotation Zrotation
													JOINT RightHandPinky4
													{
														OFFSET -5.847786 0.000000 0.000000
														CHANNELS 3 Xrotation Yrotation Zrotation
														End Site
														{
															OFFSET 0.000000 0.000000 0.000000
														}
													}
												}
											}
										}
									}
								}
							}
						}
					}
				}
			}
		}
	}
	JOINT LeftUpLeg
	{
		OFFSET 13.026900 -6.336304 -1.092800
		CHANNELS 3 Xrotation Yrotation Zrotation
		JOINT LeftLeg
		{
			OFFSET 0.524474 -46.096886 9.782700
			CHANNELS 3 Xrotation Yrotation Zrotation
			JOINT LeftFoot
			{
				OFFSET -0.524474 -53.427422 -12.948200
				CHANNELS 3 Xrotation Yrotation Zrotation
				JOINT LeftToeBase
				{
					OFFSET 0.192200 -14.009700 16.364100
					CHANNELS 3 Xrotation Yrotation Zrotation
					JOINT LeftToe_End
					{
						OFFSET -1.784700 -0.561700 9.474800
						CHANNELS 3 Xrotation Yrotation Zrotation
						End Site
						{
							OFFSET 0.000000 0.000000 0.000000
						}
					}
				}
			}
		}
	}
	JOINT RightUpLeg
	{
		OFFSET -12.883000 -6.336304 -1.092800
		CHANNELS 3 Xrotation Yrotation Zrotation
		JOINT RightLeg
		{
			OFFSET -0.524587 -46.096825 9.782800
			CHANNELS 3 Xrotation Yrotation Zrotation
			JOINT RightFoot
			{
				OFFSET 0.524587 -53.427383 -12.948300
				CHANNELS 3 Xrotation Yrotation Zrotation
				JOINT RightToeBase
				{
					OFFSET -0.192200 -14.009700 16.364100
					CHANNELS 3 Xrotation Yrotation Zrotation
					JOINT RightToe_End
					{
						OFFSET 1.784700 -0.561700 9.474800
						CHANNELS 3 Xrotation Yrotation Zrotation
						End Site
						{
							OFFSET 0.000000 0.000000 0.000000
						}
					}
				}
			}
		}
	}
}
MOTION
Frames: 4
Frame Time: 0.016667
4.606434 111.921364 11.513458 -31.807501 -38.151920 -22.127636 11.236820 -4.903572 -0.149445 3.545657 -2.400650 -0.151373 0.000000 0.000000 0.000000 3.557023 -2.388384 -0.108335 1.348024 0.319788 -0.743108 -7.666569 -1.011472 4.648233 -0.000000 0.000002 0.000000 0.576510 -16.606934 -10.307148 0.000000 0.000000 0.000000 -20.089168 4.591488 -37.031223 -0.000022 -67.698895 -0.000032 -41.746717 -11.632961 -7.621736 -22.783303 -14.798027 12.273487 3.061418 10.434221 14.851300 3.493387 44.556176 6.590331 0.000001 0.000002 -0.000001 2.077612 -2.776290 26.093713 3.254380 5.245081 -63.613896 1.613333 4.038113 -43.542422 -0.000000 0.000000 -0.000002 -0.902174 3.834337 20.965938 2.978799 5.099697 -60.557892 3.257256 5.246505 -63.645424 0.000000 -0.000000 -0.000001 -6.120848 13.236937 27.840234 3.788264 5.476560 -69.323695 1.278684 3.654643 -38.556541 0.000000 0.000000 0.000000 -10.441718 21.141334 29.056567 0.279108 1.788359 -17.739144 1.534500 3.953718 -42.411196 0.000001 -0.000000 -0.000000 0.014989 14.189126 15.480072 0.000000 0.000000 0.000000 -11.472635 -5.400268 60.640373 0.000013 39.601030 -0.000013 -3.018906 -4.350297 23.974247 -20.073127 16.089470 -24.921333 8.794311 -40.952766 -1.386093 -0.282954 -28.729063 -23.321210 -0.000000 -0.000001 0.000000 1.096415 -5.220439 38.986341 3.071106 -4.379333 70.068520 0.158025 1.204129 -14.952683 0.000002 0.000000 -0.000001 2.986223 -6.607892 70.685197 0.640881 -2.359630 30.386740 0.145853 1.157603 -14.362021 0.000004 -0.000000 -0.000000 5.905015 -7.187180 80.752930 0.324108 -1.708689 21.480955 0.002679 -0.158674 1.948215 -0.000002 -0.000000 0.000001 2.049600 -22.469451 97.460208 1.111355 -3.021275 40.383992 3.356367 -4.472210 73.763953 -0.000003 0.000003 0.000000 1.268848 12.317824 3.325381 30.794775 -1.725653 -4.393944 -8.839940 8.798949 7.145140 -0.429673 -0.002709 0.234649 0.000000 0.000000 0.000000 13.941276 -8.614269 -7.572690 27.482981 4.826924 -5.870664 -15.184651 -11.529117 6.283950 0.237208 -0.002158 0.380445 0.000000 0.000000 0.000000 
5.075920 111.908913 11.870377 -32.330653 -39.193763 -22.894154 11.231472 -4.888360 -0.211608 3.545658 -2.400648 -0.151373 0.000000 0.000000 0.000000 3.557022 -2.388378 -0.108336 1.314811 0.322517 -0.750642 -7.907085 -0.936235 4.513182 -0.000001 0.000001 -0.000000 0.579608 -16.606987 -10.288919 0.000000 0.000000 0.000000 -19.993997 4.524827 -36.978613 -0.000018 -67.695200 -0.000016 -41.851434 -11.691146 -7.561898 -22.783303 -14.798030 12.273493 3.079694 10.434826 14.836330 3.510069 44.557576 6.575766 -0.000001 0.000001 0.000001 2.045407 -2.802593 26.067093 3.253661 5.244729 -63.605986 1.613334 4.038113 -43.542425 0.000000 0.000000 -0.000001 -0.893478 3.814335 20.948153 2.979446 5.100047 -60.565091 3.259671 5.247703 -63.671959 0.000001 0.000000 -0.000000 -6.128925 13.260722 27.829030 3.784891 5.475296 -69.288349 1.278684 3.654643 -38.556537 0.000000 -0.000000 -0.000001 -10.387960 21.193309 29.075251 0.279686 1.790214 -17.758005 1.535110 3.954368 -42.419812 -0.000000 -0.000000 0.000000 0.007980 14.220994 15.529868 0.000000 0.000000 0.000000 -11.429892 -5.404809 60.569960 -0.000002 39.667191 0.000001 -3.063971 -4.381498 23.963509 -20.073127 16.089470 -24.921327 8.794317 -40.952766 -1.386092 -0.303341 -28.706650 -23.353344 -0.000003 -0.000001 -0.000001 1.106981 -5.237078 39.169694 3.083388 -4.383761 70.229426 0.158024 1.204125 -14.952660 -0.000002 -0.000002 0.000002 2.981899 -6.606644 70.757871 0.640853 -2.359558 30.385965 0.145781 1.157353 -14.359013 0.000003 -0.000001 0.000002 5.895822 -7.186310 80.734762 0.324336 -1.709204 21.487804 0.002683 -0.158673 1.948215 -0.000001 0.000001 0.000001 2.105648 -22.468964 97.580317 1.111356 -3.021275 40.383999 3.356366 -4.472210 73.763953 -0.000001 -0.000000 -0.000000 1.383667 12.571314 3.157610 30.724732 -2.146061 -4.791814 -9.036944 10.109501 8.294677 -0.486117 0.004061 -0.292528 0.000000 -0.000002 0.000000 13.377782 -8.410129 -7.970534 27.654828 4.527685 -6.019958 -14.331487 -11.783304 6.948189 0.045322 -0.003708 0.496873 -0.000000 -0.000002 0.000000 
5.529877 111.896858 12.226360 -32.882703 -40.231436 -23.680963 11.225658 -4.871713 -0.279554 3.545657 -2.400644 -0.151372 0.000000 0.000000 0.000000 3.557022 -2.388381 -0.108335 1.278869 0.332814 -0.774659 -8.164870 -0.794810 4.357008 -0.000000 -0.000000 -0.000000 0.580766 -16.582624 -10.279780 0.000000 0.000000 0.000000 -19.895788 4.421323 -36.921793 0.000037 -67.679457 0.000040 -41.961032 -11.751902 -7.500594 -22.783303 -14.798032 12.273490 3.099933 10.435461 14.819800 3.510857 44.557521 6.573903 -0.000001 0.000000 -0.000002 2.025257 -2.817827 26.042794 3.253572 5.244677 -63.604989 1.613333 4.038112 -43.542425 0.000000 0.000000 -0.000002 -0.885644 3.795374 20.937786 2.979693 5.100172 -60.567782 3.261633 5.248679 -63.693304 0.000000 -0.000000 0.000000 -6.132725 13.270839 27.825631 3.782925 5.474561 -69.267838 1.278684 3.654643 -38.556544 -0.000000 0.000000 -0.000003 -10.351094 21.229432 29.094424 0.279745 1.790416 -17.760206 1.535306 3.954584 -42.422674 -0.000001 -0.000000 0.000000 0.005026 14.258424 15.543485 0.000000 0.000000 0.000000 -11.398955 -5.416185 60.537503 -0.000044 39.702930 0.000040 -3.105282 -4.392587 23.950451 -20.073125 16.089472 -24.921327 8.794315 -40.952762 -1.386090 -0.311577 -28.697552 -23.366338 0.000001 0.000001 0.000002 1.117280 -5.251234 39.338362 3.100187 -4.389716 70.448846 0.158017 1.204122 -14.952659 -0.000001 0.000000 0.000000 2.976166 -6.604924 70.820538 0.641043 -2.359870 30.390285 0.145755 1.157191 -14.356870 -0.000001 -0.000002 0.000000 5.886031 -7.185538 80.710877 0.324529 -1.709640 21.493808 0.002680 -0.158673 1.948218 -0.000000 -0.000002 -0.000002 2.138388 -22.467810 97.646010 1.111356 -3.021278 40.383992 3.356368 -4.472214 73.763946 -0.000001 0.000000 0.000003 1.519980 12.817769 2.924094 30.641786 -2.581506 -5.105616 -9.517099 11.447344 9.471624 -0.091933 0.005117 -0.588347 -0.000000 0.000001 -0.000000 12.767304 -8.336781 -8.381508 27.862013 4.657561 -6.052529 -13.497158 -12.624961 7.275523 -0.138274 -0.004266 0.533537 -0.000000 0.000001 0.000001 
5.961567 111.884468 12.593231 -33.460905 -41.257163 -24.500566 11.220655 -4.858558 -0.338206 3.545656 -2.400646 -0.151373 0.000000 0.000000 0.000000 3.557023 -2.388378 -0.108335 1.244411 0.349194 -0.810674 -8.403960 -0.613165 4.203382 -0.000000 0.000001 -0.000000 0.581070 -16.531957 -10.273117 0.000000 0.000000 0.000000 -19.827080 4.304703 -36.893847 -0.000038 -67.649137 -0.000044 -42.037847 -11.798977 -7.458959 -22.783303 -14.798028 12.273491 3.120398 10.436113 14.803057 3.500022 44.556428 6.581394 0.000001 -0.000000 -0.000004 2.016341 -2.822805 26.020145 3.253947 5.244879 -63.609360 1.613334 4.038111 -43.542422 0.000000 -0.000001 -0.000002 -0.880731 3.784771 20.924189 2.979467 5.100038 -60.565234 3.263070 5.249394 -63.709279 0.000000 0.000000 -0.000001 -6.133159 13.271905 27.825390 3.781451 5.474027 -69.252456 1.278684 3.654643 -38.556544 0.000000 -0.000000 -0.000001 -10.329208 21.252296 29.106643 0.279458 1.789528 -17.750967 1.535130 3.954392 -42.420153 -0.000000 -0.000000 0.000000 0.004875 14.295167 15.534097 0.000000 0.000000 0.000000 -11.379687 -5.432794 60.532067 0.000007 39.716730 -0.000000 -3.137168 -4.390545 23.938413 -20.073130 16.089470 -24.921323 8.794313 -40.952759 -1.386088 -0.307632 -28.701865 -23.360167 0.000002 -0.000000 -0.000001 1.125941 -5.261670 39.465550 3.114876 -4.394903 70.640528 0.158029 1.204118 -14.952677 -0.000002 -0.000001 -0.000001 2.971165 -6.603339 70.859586 0.641256 -2.360280 30.395957 0.145736 1.157075 -14.355391 0.000002 0.000001 -0.000000 5.878788 -7.185227 80.685346 0.324627 -1.709948 21.497600 0.002676 -0.158677 1.948214 -0.000001 -0.000002 -0.000001 2.141798 -22.466782 97.647513 1.111353 -3.021275 40.383999 3.356368 -4.472208 73.763953 -0.000002 -0.000001 0.000002 1.675221 13.026983 2.810750 30.489114 -3.032997 -5.463571 -9.838770 12.857220 10.026472 -0.038709 0.006172 -0.646217 0.000000 -0.000001 0.000000 12.114823 -8.314546 -8.750586 28.054464 4.580801 -6.026933 -12.626241 -14.082233 7.359003 -0.262754 -0.002722 0.425070 -0.000000 0.000000 0.000001 
